<svg id="Layer_1" data-name="Layer 1" xmlns="http://www.w3.org/2000/svg" viewBox="0 0 1366 1366"><defs><style>.cls-1{fill:#ff1744;}.cls-2{fill:#282828;}</style></defs><path class="cls-1" d="M794.36,895.75l111.16,52.5c-6.7,56.88-16.62,96.31-58.44,142.07-30.71,33.61-77.93,56.16-126.06,59.59H518.18V290.53a149.55,149.55,0,1,0-197.11-1V1339H721c179.38,0,332.45-119.91,367.28-281,2.63-12.17,7.35-126,7.46-138.44V612.45ZM420.77,131.14a48.13,48.13,0,1,1-48.13,48.13A48.13,48.13,0,0,1,420.77,131.14Z"/><path class="cls-2" d="M899.79,457V714.71l196-184.2V417.63c-1.56-32.82-6.09-66.77-7.46-73.11-34.83-161.08-187.9-281-367.28-281H591.67a207.13,207.13,0,0,1,20.26,189.08H721c48.13,3.44,95.35,26,126.06,59.59,16.12,17.64,27.49,34.34,35.77,51.45a174.58,174.58,0,0,1,17,77.28Z"/></svg>