<svg id="Layer_1" data-name="Layer 1" xmlns="http://www.w3.org/2000/svg" viewBox="0 0 1366 1366"><defs><style>.cls-1{fill:#ff1744;}.cls-2{fill:#282828;}</style></defs><path class="cls-1" d="M724.4,891.54l127.45,60.19c-6,35.38-16.08,59.46-42.06,87.88-22.37,24.48-57.89,41.33-93,44.15H564.09V331.06a175.28,175.28,0,0,0,48.2-120.74C612.29,113.65,533.64,35,437,35S261.65,113.65,261.65,210.32a175.46,175.46,0,0,0,47.14,119.59V1331.56H718.18c182.64,0,341.63-122.25,378.05-290.68,3.65-16.88,7.73-132,7.77-136.62V534.72ZM437.51,166.94a45,45,0,1,1-45,45A45,45,0,0,1,437.51,166.94Z"/><path class="cls-2" d="M621.38,75.79A228.69,228.69,0,0,1,641.45,316h75.38c35.07,2.82,70.59,19.67,93,44.15,12.2,13.34,21.25,26.29,27.69,39.6a128.47,128.47,0,0,1,12.39,56.53l-.1,15V695.06l254.23-239V434.75l0-1.68c-1.51-31.84-5.9-65.7-7.73-74.18C1059.81,190.46,900.82,68.21,718.18,68.21H619.3Q620.42,72,621.38,75.79Z"/></svg>